<?xml version="1.0" encoding="utf-8"?>
<!-- Generator: Adobe Illustrator 19.2.1, SVG Export Plug-In . SVG Version: 6.00 Build 0)  -->
<svg version="1.1" id="Layer_1" xmlns="http://www.w3.org/2000/svg" xmlns:xlink="http://www.w3.org/1999/xlink" x="0px" y="0px"
	 width="281px" height="125px" viewBox="0 0 281 125" style="enable-background:new 0 0 281 125;" xml:space="preserve">
<style type="text/css">
	.st0{display:none;fill:url(#XMLID_2_);}
	.st1{fill:#717271;}
	.st2{fill:url(#SVGID_1_);}
	.st3{clip-path:url(#XMLID_4_);fill:url(#XMLID_5_);}
	.st4{display:none;clip-path:url(#XMLID_7_);fill:url(#XMLID_8_);}
	.st5{clip-path:url(#XMLID_11_);fill:url(#XMLID_13_);}
	.st6{clip-path:url(#XMLID_15_);fill:url(#XMLID_27_);}
	.st7{clip-path:url(#XMLID_29_);fill:url(#XMLID_30_);}
</style>
<g>
	<g>
		<g id="new_2_">
			<g>
				<g id="XMLID_10_">
					<linearGradient id="XMLID_2_" gradientUnits="userSpaceOnUse" x1="292.251" y1="-20.9921" x2="292.251" y2="63.611">
						<stop  offset="0" style="stop-color:#C1B900"/>
						<stop  offset="1" style="stop-color:#E2E000"/>
					</linearGradient>
					<polygon id="XMLID_12_" class="st0" points="298.2,-21 298.2,63.6 286.3,63.6 286.5,-21 					"/>
				</g>
			</g>
		</g>
	</g>
</g>
<g>
	<path class="st1" d="M87,105c0,1.7-0.6,3.5-1.7,4.7c-0.9,0.8-2,1.3-3.3,1.3c-2.5,0-3.7-1.9-3.7-3.9c0-1.7,0.7-3.6,1.8-4.7
		c0.8-0.8,2-1.3,3.2-1.3C86,101.1,87,103,87,105z M81.1,103.1c-0.9,0.9-1.5,2.6-1.5,4c0,1.6,0.7,3,2.6,3c0.8,0,1.6-0.4,2.2-1
		c0.9-0.9,1.4-2.6,1.4-4c0-1.4-0.4-3-2.5-3C82.4,102.1,81.6,102.5,81.1,103.1z"/>
	<path class="st1" d="M87.3,113.7l1.4-7.3c0.1-0.8,0.3-1.8,0.4-2.5h1.1l-0.2,1.3h0c0.6-0.9,1.5-1.5,2.5-1.5c1.5,0,2.1,1.2,2.1,2.5
		c0,2.4-1.7,4.7-4,4.7c-0.7,0-1.2-0.2-1.5-0.3h0l-0.6,3H87.3z M89.2,109.7c0.3,0.2,0.8,0.4,1.3,0.4c1.5,0,2.8-1.9,2.8-3.7
		c0-0.7-0.3-1.6-1.3-1.6c-0.9,0-2.1,1.1-2.5,3L89.2,109.7z"/>
	<path class="st1" d="M98.7,102.1l-0.4,1.9h1.7l-0.2,0.9h-1.7l-0.6,3.4c-0.1,0.4-0.1,0.7-0.1,1.1c0,0.4,0.2,0.7,0.7,0.7
		c0.2,0,0.4,0,0.6,0l-0.1,0.9c-0.2,0.1-0.6,0.1-0.9,0.1c-1.1,0-1.5-0.6-1.5-1.3c0-0.4,0-0.8,0.1-1.3l0.7-3.5h-1l0.2-0.9h1l0.3-1.6
		L98.7,102.1z"/>
	<path class="st1" d="M100.3,110.9l1.3-6.9h1.2l-1.3,6.9H100.3z M101.8,102c0-0.5,0.4-0.8,0.8-0.8c0.4,0,0.7,0.3,0.7,0.7
		c0,0.5-0.3,0.8-0.8,0.8C102.1,102.8,101.8,102.5,101.8,102z"/>
	<path class="st1" d="M103.8,110.9l0.9-4.9c0.1-0.8,0.2-1.4,0.3-2h1l-0.2,1.3h0c0.6-1,1.5-1.5,2.4-1.5c1.1,0,1.6,0.7,1.6,1.5
		c0.6-1,1.5-1.5,2.5-1.5c0.8,0,1.7,0.5,1.7,1.8c0,0.3,0,0.8-0.1,1.2l-0.8,4.1h-1.2l0.7-4c0.1-0.3,0.1-0.6,0.1-0.9
		c0-0.7-0.3-1.2-1-1.2c-0.9,0-1.9,1-2.2,2.5l-0.7,3.5h-1.1l0.8-4.1c0.1-0.3,0.1-0.6,0.1-0.8c0-0.6-0.2-1.2-1-1.2s-1.9,1.1-2.2,2.6
		l-0.6,3.5H103.8z"/>
	<path class="st1" d="M115.5,110.9l1.3-6.9h1.2l-1.3,6.9H115.5z M117.1,102c0-0.5,0.4-0.8,0.8-0.8c0.4,0,0.7,0.3,0.7,0.7
		c0,0.5-0.3,0.8-0.8,0.8C117.3,102.8,117.1,102.5,117.1,102z"/>
	<path class="st1" d="M118.4,110.1l3.4-3.7c0.6-0.6,1-1,1.4-1.4l0,0h-3.5l0.2-1h5l-0.2,0.8l-3.3,3.7c-0.6,0.7-1,1-1.4,1.4v0h3.8
		l-0.2,1h-5.3L118.4,110.1z"/>
	<path class="st1" d="M130,110.5c-0.5,0.3-1.4,0.5-2.3,0.5c-1.8,0-2.6-1.2-2.6-2.8c0-2.1,1.5-4.4,3.8-4.4c1.3,0,2,0.8,2,1.8
		c0,1.8-2,2.3-4.6,2.3c-0.1,0.3,0,0.9,0.1,1.3c0.3,0.6,0.8,0.9,1.5,0.9c0.8,0,1.4-0.3,1.9-0.5L130,110.5z M128.7,104.7
		c-1.1,0-2,1.1-2.3,2.2c1.9,0,3.3-0.2,3.3-1.3C129.8,105,129.4,104.7,128.7,104.7z"/>
	<path class="st1" d="M139.1,100.7l-1.5,7.9c-0.1,0.7-0.3,1.5-0.3,2.2h-1.1l0.2-1.4h0c-0.6,1-1.5,1.5-2.5,1.5
		c-1.3,0-2.1-1.1-2.1-2.5c0-2.5,1.8-4.7,4.3-4.7c0.4,0,0.9,0.1,1.2,0.2l0.6-3.3H139.1z M137.1,105c-0.2-0.2-0.6-0.3-1.1-0.3
		c-1.7,0-2.9,1.8-2.9,3.6c0,0.8,0.3,1.7,1.3,1.7c0.9,0,2-1,2.3-2.6L137.1,105z"/>
	<path class="st1" d="M148.1,110.9c-0.2-0.3-0.4-0.5-0.7-0.9c-0.8,0.7-1.7,1-2.7,1c-1.7,0-2.6-1.1-2.6-2.4c0-1.5,1.2-2.5,2.4-3.1v0
		c-0.3-0.6-0.5-1.2-0.5-1.8c0-1.4,1.1-2.6,2.5-2.6c1.3,0,1.9,0.9,1.9,1.9c0,1.1-0.8,2-2.5,2.8v0c0.5,0.9,1.2,2,1.7,2.7
		c0.6-0.7,1-1.7,1.5-2.9h1.1c-0.5,1.5-1.1,2.7-2,3.7c0.4,0.5,0.7,1,1.2,1.6H148.1z M146.9,109.2c-0.4-0.7-1.3-1.8-2-3
		c-0.6,0.4-1.6,1.1-1.6,2.2c0,0.9,0.6,1.7,1.7,1.7C145.8,110.1,146.4,109.8,146.9,109.2z M145.1,103.6c0,0.5,0.2,1,0.5,1.5
		c1.2-0.6,1.8-1.2,1.8-2.1c0-0.6-0.3-1.1-1-1.1C145.7,101.9,145.1,102.6,145.1,103.6z"/>
	<path class="st1" d="M153.9,109.4c0.5,0.4,1.2,0.6,2,0.6c1.1,0,2.1-0.6,2.1-1.8c0-0.7-0.4-1.2-1.4-1.8c-1.2-0.7-1.9-1.4-1.9-2.5
		c0-1.7,1.5-2.8,3.3-2.8c0.9,0,1.6,0.3,2,0.5l-0.4,1c-0.3-0.2-0.9-0.5-1.7-0.4c-1.2,0-1.9,0.8-1.9,1.6c0,0.8,0.5,1.2,1.5,1.8
		c1.2,0.6,1.8,1.4,1.8,2.6c0,1.7-1.3,3-3.5,3c-1,0-1.9-0.3-2.3-0.7L153.9,109.4z"/>
	<path class="st1" d="M165.7,110.5c-0.5,0.3-1.4,0.5-2.3,0.5c-1.8,0-2.6-1.2-2.6-2.8c0-2.1,1.5-4.4,3.8-4.4c1.3,0,2,0.8,2,1.8
		c0,1.8-2,2.3-4.6,2.3c-0.1,0.3,0,0.9,0.1,1.3c0.3,0.6,0.8,0.9,1.5,0.9c0.8,0,1.4-0.3,1.9-0.5L165.7,110.5z M164.4,104.7
		c-1.1,0-2,1.1-2.3,2.2c1.9,0,3.3-0.2,3.3-1.3C165.4,105,165,104.7,164.4,104.7z"/>
	<path class="st1" d="M172.1,110.6c-0.4,0.2-1.1,0.4-2,0.4c-1.8,0-2.7-1.2-2.7-2.7c0-2.4,1.7-4.5,4.2-4.5c0.6,0,1.2,0.2,1.4,0.3
		l-0.3,0.9c-0.3-0.1-0.7-0.3-1.2-0.3c-1.8,0-2.9,1.8-2.9,3.4c0,1.1,0.6,1.8,1.7,1.8c0.7,0,1.2-0.2,1.6-0.4L172.1,110.6z"/>
	<path class="st1" d="M180.4,104l-0.9,4.9c-0.1,0.8-0.2,1.4-0.3,2H178l0.2-1.3h0c-0.6,0.9-1.5,1.5-2.4,1.5c-0.9,0-1.8-0.4-1.8-2
		c0-0.3,0-0.7,0.1-1.2l0.7-3.9h1.2l-0.7,3.9c-0.1,0.4-0.1,0.7-0.1,1c0,0.7,0.3,1.2,1.1,1.2c0.9,0,2-1,2.2-2.5l0.7-3.5H180.4z"/>
	<path class="st1" d="M181.3,110.9l0.8-4.5c0.2-0.9,0.3-1.8,0.4-2.5h1c-0.1,0.5-0.1,1-0.2,1.5h0c0.4-0.9,1.2-1.7,2.1-1.7
		c0.1,0,0.2,0,0.3,0l-0.2,1.2c-0.1,0-0.2,0-0.3,0c-1,0-1.9,1.2-2.2,2.9l-0.6,3H181.3z"/>
	<path class="st1" d="M191,110.5c-0.5,0.3-1.4,0.5-2.3,0.5c-1.8,0-2.6-1.2-2.6-2.8c0-2.1,1.5-4.4,3.8-4.4c1.3,0,2,0.8,2,1.8
		c0,1.8-2,2.3-4.6,2.3c-0.1,0.3,0,0.9,0.1,1.3c0.3,0.6,0.8,0.9,1.5,0.9c0.8,0,1.4-0.3,1.9-0.5L191,110.5z M189.7,104.7
		c-1.1,0-2,1.1-2.3,2.2c1.9,0,3.3-0.2,3.3-1.3C190.7,105,190.3,104.7,189.7,104.7z"/>
	<path class="st1" d="M198.5,101.2l-1.8,9.6h-1.2l1.8-9.6H198.5z"/>
	<path class="st1" d="M202.4,102.3h-2.8l0.2-1h6.8l-0.2,1h-2.8l-1.6,8.6h-1.2L202.4,102.3z"/>
	<path class="st1" d="M209,109.4c0.5,0.4,1.2,0.6,2,0.6c1.1,0,2.1-0.6,2.1-1.8c0-0.7-0.4-1.2-1.4-1.8c-1.2-0.7-1.9-1.4-1.9-2.5
		c0-1.7,1.5-2.8,3.3-2.8c0.9,0,1.6,0.3,2,0.5l-0.4,1c-0.3-0.2-0.9-0.5-1.7-0.4c-1.2,0-1.9,0.8-1.9,1.6c0,0.8,0.5,1.2,1.5,1.8
		c1.2,0.6,1.8,1.4,1.8,2.6c0,1.7-1.3,3-3.5,3c-1,0-1.9-0.3-2.3-0.7L209,109.4z"/>
	<path class="st1" d="M222.5,106.7c0,2.1-1.5,4.3-3.8,4.3c-1.7,0-2.7-1.3-2.7-2.8c0-2.3,1.6-4.4,3.8-4.4
		C221.6,103.8,222.5,105.2,222.5,106.7z M217.2,108.1c0,1.1,0.6,1.9,1.6,1.9c1.4,0,2.5-1.8,2.5-3.4c0-0.8-0.4-1.9-1.6-1.9
		C218.2,104.7,217.2,106.6,217.2,108.1z"/>
	<path class="st1" d="M223.5,110.9l1.9-10.1h1.2l-1.9,10.1H223.5z"/>
	<path class="st1" d="M233.7,104l-0.9,4.9c-0.1,0.8-0.2,1.4-0.3,2h-1.1l0.2-1.3h0c-0.6,0.9-1.5,1.5-2.4,1.5c-0.9,0-1.8-0.4-1.8-2
		c0-0.3,0-0.7,0.1-1.2l0.7-3.9h1.2l-0.7,3.9c-0.1,0.4-0.1,0.7-0.1,1c0,0.7,0.3,1.2,1.1,1.2c0.9,0,2-1,2.2-2.5l0.7-3.5H233.7z"/>
	<path class="st1" d="M237.8,102.1l-0.4,1.9h1.7l-0.2,0.9h-1.7l-0.6,3.4c-0.1,0.4-0.1,0.7-0.1,1.1c0,0.4,0.2,0.7,0.7,0.7
		c0.2,0,0.4,0,0.6,0l-0.1,0.9c-0.2,0.1-0.6,0.1-0.9,0.1c-1.1,0-1.5-0.6-1.5-1.3c0-0.4,0-0.8,0.1-1.3l0.7-3.5h-1l0.2-0.9h1l0.3-1.6
		L237.8,102.1z"/>
	<path class="st1" d="M239.4,110.9l1.3-6.9h1.2l-1.3,6.9H239.4z M240.9,102c0-0.5,0.4-0.8,0.8-0.8c0.4,0,0.7,0.3,0.7,0.7
		c0,0.5-0.3,0.8-0.8,0.8C241.2,102.8,240.9,102.5,240.9,102z"/>
	<path class="st1" d="M249.5,106.7c0,2.1-1.5,4.3-3.8,4.3c-1.7,0-2.7-1.3-2.7-2.8c0-2.3,1.6-4.4,3.8-4.4
		C248.7,103.8,249.5,105.2,249.5,106.7z M244.2,108.1c0,1.1,0.6,1.9,1.6,1.9c1.4,0,2.5-1.8,2.5-3.4c0-0.8-0.4-1.9-1.6-1.9
		C245.2,104.7,244.2,106.6,244.2,108.1z"/>
	<path class="st1" d="M250.5,110.9l0.9-4.9c0.2-0.8,0.2-1.4,0.3-2h1.1l-0.2,1.4h0c0.6-1,1.5-1.5,2.6-1.5c0.8,0,1.8,0.5,1.8,1.9
		c0,0.3-0.1,0.7-0.1,1.1l-0.8,4h-1.2l0.8-4c0.1-0.3,0.1-0.6,0.1-0.9c0-0.7-0.3-1.2-1.1-1.2c-0.8,0-2,1-2.4,2.7l-0.6,3.4H250.5z"/>
	<path class="st1" d="M258.4,109.7c0.3,0.2,0.9,0.4,1.5,0.4c0.8,0,1.3-0.5,1.3-1.1c0-0.5-0.2-0.9-1-1.3c-0.8-0.4-1.2-1.1-1.2-1.8
		c0-1.2,1-2.1,2.5-2.1c0.6,0,1.2,0.2,1.4,0.3l-0.3,0.9c-0.2-0.1-0.7-0.3-1.2-0.3c-0.7,0-1.2,0.4-1.2,1c0,0.5,0.3,0.8,0.9,1.2
		c0.8,0.4,1.3,1,1.3,1.8c0,1.5-1.2,2.3-2.6,2.3c-0.7,0-1.4-0.2-1.7-0.5L258.4,109.7z"/>
</g>
<g>
	<path class="st1" d="M82,68.5h-3.3v-1.8h8.8v1.8h-3.4v10.2H82V68.5z"/>
	<path class="st1" d="M101.5,73.4h-4.4v3.5h4.9v1.8h-7v-12h6.8v1.8h-4.7v3.1h4.4V73.4z"/>
	<path class="st1" d="M118.3,78.4c-0.5,0.3-1.6,0.5-3,0.5c-3.7,0-6-2.4-6-6c0-4,2.7-6.3,6.2-6.3c1.4,0,2.4,0.3,2.8,0.5l-0.5,1.7
		c-0.6-0.2-1.3-0.5-2.3-0.5c-2.4,0-4.1,1.5-4.1,4.4c0,2.6,1.5,4.3,4.1,4.3c0.9,0,1.8-0.2,2.3-0.4L118.3,78.4z"/>
	<path class="st1" d="M128.3,66.7v4.8h4.9v-4.8h2.1v12h-2.1v-5.3h-4.9v5.3h-2.1v-12H128.3z"/>
	<path class="st1" d="M143.8,78.7v-12h2.4l3,5.2c0.8,1.3,1.5,2.7,2,4h0c-0.1-1.6-0.2-3.2-0.2-5v-4.2h2v12h-2.2l-3-5.3
		c-0.7-1.3-1.5-2.8-2.1-4.2l-0.1,0c0.1,1.6,0.1,3.1,0.1,5.1v4.3H143.8z"/>
	<path class="st1" d="M171.9,72.6c0,4-2.4,6.3-5.6,6.3c-3.3,0-5.4-2.6-5.4-6.1c0-3.7,2.2-6.3,5.5-6.3
		C169.9,66.5,171.9,69.2,171.9,72.6z M163.2,72.8c0,2.4,1.2,4.4,3.2,4.4c2.1,0,3.2-2,3.2-4.5c0-2.3-1.1-4.4-3.2-4.4
		C164.3,68.3,163.2,70.3,163.2,72.8z"/>
	<path class="st1" d="M179.8,66.7h2.1v10.2h4.8v1.8h-6.9V66.7z"/>
	<path class="st1" d="M204.1,72.6c0,4-2.4,6.3-5.6,6.3c-3.3,0-5.4-2.6-5.4-6.1c0-3.7,2.2-6.3,5.5-6.3
		C202.1,66.5,204.1,69.2,204.1,72.6z M195.4,72.8c0,2.4,1.2,4.4,3.2,4.4c2.1,0,3.2-2,3.2-4.5c0-2.3-1.1-4.4-3.2-4.4
		C196.5,68.3,195.4,70.3,195.4,72.8z"/>
	<path class="st1" d="M221.3,78.2c-0.7,0.3-2.2,0.7-3.8,0.7c-2,0-3.5-0.5-4.6-1.6c-1-1-1.6-2.6-1.6-4.4c0-3.8,2.6-6.2,6.5-6.2
		c1.4,0,2.6,0.3,3.1,0.6l-0.5,1.8c-0.6-0.3-1.4-0.5-2.6-0.5c-2.5,0-4.2,1.5-4.2,4.3c0,2.7,1.6,4.3,4,4.3c0.8,0,1.3-0.1,1.6-0.2v-3
		h-2.1v-1.7h4.1V78.2z"/>
	<path class="st1" d="M231.7,66.7v12h-2.1v-12H231.7z"/>
	<path class="st1" d="M246.7,73.4h-4.4v3.5h4.9v1.8h-7v-12h6.8v1.8h-4.7v3.1h4.4V73.4z"/>
	<path class="st1" d="M255.1,76.3c0.7,0.4,1.7,0.8,2.8,0.8c1.4,0,2.1-0.7,2.1-1.6c0-0.9-0.6-1.4-2.1-2c-1.9-0.7-3.1-1.8-3.1-3.5
		c0-2,1.6-3.5,4.1-3.5c1.3,0,2.2,0.3,2.8,0.6l-0.5,1.8c-0.4-0.2-1.2-0.6-2.3-0.6c-1.3,0-1.9,0.7-1.9,1.4c0,0.9,0.7,1.4,2.2,2
		c2,0.8,3,1.8,3,3.6c0,1.9-1.4,3.6-4.4,3.6c-1.2,0-2.5-0.4-3.1-0.7L255.1,76.3z"/>
</g>
<g>
	<path class="st1" d="M137.7,46.4h-4.3c-2.8,0-4.1-1.3-4.1-4.2V28.9h9.7l0-5.9h-27c2.2,1.4,3.9,3.4,4.9,5.9h6.7v13.3
		c0,6.6,3.4,10.1,9.8,10.1h7.7C139.5,50.9,138.3,48.9,137.7,46.4z"/>
	<path id="XMLID_26_" class="st1" d="M102.2,23H87.3v29.3h5.8V28.9h9.1c5.4,0,7.9,2.6,7.9,8.1v15.3h5.8V37
		C115.8,27.8,111.1,23,102.2,23"/>
	<path id="XMLID_25_" class="st1" d="M201.9,37v15.3h5.8V37c0-5.5,2.5-8.1,7.9-8.1h6.7V23h-6.7C206.6,23,201.9,27.8,201.9,37"/>
	<path id="XMLID_22_" class="st1" d="M252.4,23h-8.8c-6.4,0-9.8,3.5-9.8,10.1v9.1c0,6.6,3.4,10.1,9.8,10.1h8.8
		c6.4,0,9.8-3.5,9.8-10.1v-9.1C262.2,26.5,258.8,23,252.4,23 M252.4,46.4h-8.8c-2.8,0-4.1-1.3-4.1-4.2v-9.1c0-2.9,1.3-4.2,4.1-4.2
		h8.8c2.8,0,4.1,1.3,4.1,4.2v9.1C256.4,45.1,255.2,46.4,252.4,46.4"/>
	<path id="XMLID_19_" class="st1" d="M189.3,23h-8.8c-6.4,0-9.8,3.5-9.8,10.1v9.1c0,6.6,3.4,10.1,9.8,10.1h12.9v1
		c0,2.9-1.3,4.2-4.1,4.2h-18.1l3.5,5.9h14.6c6.4,0,9.8-3.5,9.8-10.1V33.1C199.1,26.5,195.7,23,189.3,23 M193.3,46.4h-12.9
		c-2.8,0-4.1-1.3-4.1-4.2v-9.1c0-2.9,1.3-4.2,4.1-4.2h8.8c2.8,0,4.1,1.3,4.1,4.2V46.4z"/>
	<g>
		<rect x="78.7" y="23" class="st1" width="5.8" height="5.9"/>
		<rect x="78.7" y="31.9" class="st1" width="5.8" height="20.5"/>
	</g>
	<g>
		<rect x="225" y="23" class="st1" width="5.8" height="5.9"/>
		<rect x="225" y="31.9" class="st1" width="5.8" height="20.5"/>
	</g>
	<path id="XMLID_16_" class="st1" d="M165,46.5h-15.4c-2.4,0-3.6-0.9-4-2.9l18-4.2c2.1-0.5,4.6-2.1,4.6-7.5c0-4-1.7-8.8-9.8-8.8
		h-8.8c-6.4,0-9.8,3.5-9.8,10.1v9.1c0,6.6,3.4,10.1,9.8,10.1h18.8 M162.3,33.6l-16.6,3.9v-4.3c0-2.9,1.3-4.2,4.1-4.2h8.8
		c2.8,0,4.1,1.3,4.1,4.2C162.6,33.3,162.6,33.5,162.3,33.6"/>
	<g>
		<path class="st1" d="M267.9,23H267v-4.7h-1.6v-0.8h4.1v0.8h-1.6V23z"/>
		<path class="st1" d="M272.7,23l-1.6-4.6h0c0,0.7,0.1,1.3,0.1,1.9V23h-0.8v-5.5h1.3l1.5,4.4h0l1.6-4.4h1.3V23h-0.9v-2.7
			c0-0.3,0-0.6,0-1.1c0-0.4,0-0.7,0-0.8h0l-1.7,4.6H272.7z"/>
	</g>
</g>
<g>
	<g id="new_1_">
		<g id="new_solo_2_">
			<linearGradient id="SVGID_1_" gradientUnits="userSpaceOnUse" x1="3.3" y1="48.8747" x2="65.6557" y2="48.8747">
				<stop  offset="0" style="stop-color:#E2E000"/>
				<stop  offset="1" style="stop-color:#C1B900"/>
			</linearGradient>
			<path class="st2" d="M65.7,71.2l0-22.2v-0.2l0-22.2L58,21.8l-9.4,5.7l0-11.4l-7.8-4.8L3.3,33.7l0,9.3l9.9,5.9l-9.9,5.9l0,9.3
				l37.5,22.3l7.8-4.8l0-11.4l9.4,5.7L65.7,71.2z M40.9,56.4l-12.5-7.5l12.4-7.5 M10.8,38.4l30-17.9v11.7L20.7,44.3L10.8,38.4z
				 M10.9,59.4l10.1-6L41,65.6l0,11.8L10.9,59.4z M58.1,66.7L48.6,61l0-12.1v-0.2l0-12.1l9.5-5.9V66.7z"/>
			<g id="XMLID_277_">
				<defs>
					<polygon id="XMLID_278_" points="40.8,11.3 40.9,86.4 48.8,81.6 48.7,16.1 					"/>
				</defs>
				<linearGradient id="XMLID_3_" gradientUnits="userSpaceOnUse" x1="44.8058" y1="11.3249" x2="44.8058" y2="86.4277">
					<stop  offset="0" style="stop-color:#C1B900"/>
					<stop  offset="1" style="stop-color:#E2E000"/>
				</linearGradient>
				<use xlink:href="#XMLID_278_"  style="overflow:visible;fill:url(#XMLID_3_);"/>
				<clipPath id="XMLID_4_">
					<use xlink:href="#XMLID_278_"  style="overflow:visible;"/>
				</clipPath>
				<linearGradient id="XMLID_5_" gradientUnits="userSpaceOnUse" x1="44.8504" y1="11.3487" x2="44.8504" y2="86.5036">
					<stop  offset="0" style="stop-color:#C1B900"/>
					<stop  offset="1" style="stop-color:#E2E000"/>
				</linearGradient>
				<rect id="XMLID_279_" x="40.9" y="11.3" class="st3" width="7.9" height="75.2"/>
			</g>
			<g id="XMLID_274_">
				<defs>
					<polygon id="XMLID_275_" points="58.1,21.8 58.1,75.9 65.8,71.2 65.8,26.6 					"/>
				</defs>
				<linearGradient id="XMLID_6_" gradientUnits="userSpaceOnUse" x1="61.9084" y1="21.7689" x2="61.9084" y2="75.925">
					<stop  offset="0" style="stop-color:#C1B900"/>
					<stop  offset="1" style="stop-color:#E2E000"/>
				</linearGradient>
				<use xlink:href="#XMLID_275_"  style="overflow:visible;fill:url(#XMLID_6_);"/>
				<clipPath id="XMLID_7_">
					<use xlink:href="#XMLID_275_"  style="overflow:visible;"/>
				</clipPath>
				<linearGradient id="XMLID_8_" gradientUnits="userSpaceOnUse" x1="68.9558" y1="23.7961" x2="68.9558" y2="77.8963">
					<stop  offset="0" style="stop-color:#C1B900"/>
					<stop  offset="1" style="stop-color:#E2E000"/>
				</linearGradient>
				<polygon id="XMLID_276_" class="st4" points="72.9,23.8 72.9,77.9 65,77.9 65.2,23.8 				"/>
			</g>
			<g id="XMLID_271_">
				<defs>
					<polygon id="XMLID_272_" points="3.3,64.1 65.8,26.6 58.1,21.8 3.3,54.8 					"/>
				</defs>
				<linearGradient id="XMLID_9_" gradientUnits="userSpaceOnUse" x1="10.6054" y1="54.2838" x2="56.7263" y2="28.2154">
					<stop  offset="0" style="stop-color:#C1B900"/>
					<stop  offset="0.1914" style="stop-color:#C8C100"/>
					<stop  offset="1" style="stop-color:#E2E000"/>
				</linearGradient>
				<use xlink:href="#XMLID_272_"  style="overflow:visible;fill:url(#XMLID_9_);"/>
				<clipPath id="XMLID_11_">
					<use xlink:href="#XMLID_272_"  style="overflow:visible;"/>
				</clipPath>
				<linearGradient id="XMLID_13_" gradientUnits="userSpaceOnUse" x1="11.5886" y1="55.8861" x2="57.6591" y2="29.8463">
					<stop  offset="0" style="stop-color:#C1B900"/>
					<stop  offset="0.1914" style="stop-color:#C8C100"/>
					<stop  offset="1" style="stop-color:#E2E000"/>
				</linearGradient>
				<rect id="XMLID_273_" x="3.4" y="21.8" class="st5" width="62.4" height="42.3"/>
			</g>
			<g id="XMLID_268_">
				<defs>
					<polygon id="XMLID_269_" points="10.8,38.4 58.1,66.7 58.1,75.9 3.3,43 					"/>
				</defs>
				<linearGradient id="XMLID_14_" gradientUnits="userSpaceOnUse" x1="3.3177" y1="57.1449" x2="58.0661" y2="57.1449">
					<stop  offset="0" style="stop-color:#C1B900"/>
					<stop  offset="0.4483" style="stop-color:#E2E000"/>
					<stop  offset="1" style="stop-color:#C1B900"/>
				</linearGradient>
				<use xlink:href="#XMLID_269_"  style="overflow:visible;fill:url(#XMLID_14_);"/>
				<clipPath id="XMLID_15_">
					<use xlink:href="#XMLID_269_"  style="overflow:visible;"/>
				</clipPath>
				<linearGradient id="XMLID_27_" gradientUnits="userSpaceOnUse" x1="3.3828" y1="57.1854" x2="58.0541" y2="57.1854">
					<stop  offset="0" style="stop-color:#C1B900"/>
					<stop  offset="0.4483" style="stop-color:#E2E000"/>
					<stop  offset="1" style="stop-color:#C1B900"/>
				</linearGradient>
				<rect id="XMLID_270_" x="3.4" y="38.5" class="st6" width="54.7" height="37.5"/>
			</g>
			<g id="XMLID_265_">
				<defs>
					<polygon id="XMLID_266_" points="40.8,41.5 40.9,86.4 48.8,81.6 48.7,36.8 					"/>
				</defs>
				<linearGradient id="XMLID_28_" gradientUnits="userSpaceOnUse" x1="44.8025" y1="36.8029" x2="44.8025" y2="86.4244">
					<stop  offset="0" style="stop-color:#C1B900"/>
					<stop  offset="0.4828" style="stop-color:#E2E000"/>
					<stop  offset="0.9557" style="stop-color:#C1B900"/>
				</linearGradient>
				<use xlink:href="#XMLID_266_"  style="overflow:visible;fill:url(#XMLID_28_);"/>
				<clipPath id="XMLID_29_">
					<use xlink:href="#XMLID_266_"  style="overflow:visible;"/>
				</clipPath>
				<linearGradient id="XMLID_30_" gradientUnits="userSpaceOnUse" x1="44.8504" y1="36.7813" x2="44.8504" y2="86.5036">
					<stop  offset="0" style="stop-color:#C1B900"/>
					<stop  offset="0.4828" style="stop-color:#E2E000"/>
					<stop  offset="0.9557" style="stop-color:#C1B900"/>
				</linearGradient>
				<rect id="XMLID_267_" x="40.9" y="36.8" class="st7" width="7.9" height="49.7"/>
			</g>
		</g>
	</g>
</g>
<g>
	<path class="st1" d="M266.8,102.2h-0.5v-2.7h-0.9V99h2.4v0.4h-0.9V102.2z"/>
	<path class="st1" d="M269.6,102.2l-0.9-2.7h0c0,0.4,0,0.8,0,1.1v1.5h-0.5V99h0.7l0.9,2.5h0l0.9-2.5h0.7v3.2H271v-1.6
		c0-0.2,0-0.4,0-0.6c0-0.3,0-0.4,0-0.5h0l-1,2.7H269.6z"/>
</g>
</svg>
